<svg width="254" height="224" viewBox="0 0 254 224" fill="none" xmlns="http://www.w3.org/2000/svg">
<path d="M191.21 184.269C191.907 181.16 192.39 178.019 192.559 174.967V174.936C192.559 173.446 186.282 172.257 177.889 171.565C183.235 150.082 187.617 123.209 191.299 112.465C196.755 96.5534 197.31 69.4942 186.766 66.7928C179.704 63.7541 169.949 62.41 160.647 62.41C153.603 62.41 146.82 63.1819 141.652 64.5704C140.264 63.7054 138.631 63.0267 136.728 62.552C136.728 62.552 136.724 62.6363 136.719 62.8004C135.894 62.4722 134.985 62.277 133.987 62.2237L131.911 56.5945C132.19 56.0977 132.359 55.5521 132.363 54.9666C132.363 54.8158 132.35 54.6605 132.328 54.5052C132.159 53.3386 131.197 52.5489 130.008 52.0122C127.746 50.9919 124.658 50.9032 124.658 50.9032C123.935 54.1414 124.472 57.2023 125.297 58.7681C125.625 59.3892 125.998 59.7795 126.353 59.8505C126.419 59.8638 126.495 59.8683 126.583 59.8683C126.907 59.8683 127.368 59.7751 127.887 59.5976C127.79 60.3961 127.63 61.3676 127.373 62.3878C127.297 62.6984 127.209 63.0089 127.116 63.3238C122.791 64.5082 119.504 66.5 118.621 69.6273C118.315 70.7053 117.84 72.8922 117.055 75.6424C116.39 76.8002 115.915 77.7672 115.689 78.3971C115.556 78.7653 115.502 79.1468 115.52 79.5371C115.524 79.7501 115.551 79.9675 115.591 80.1893C115.116 81.5067 114.575 82.8774 113.954 84.257C111.483 89.7575 107.775 95.3956 102.177 98.6338C90.1022 105.612 87.7999 104.401 87.6269 105.425C87.6003 105.585 87.9463 105.705 88.5851 105.776C88.5895 105.776 88.5984 105.776 88.6029 105.776C82.6321 105.501 76.8964 105.31 71.8178 105.31C63.2214 105.31 56.5098 105.851 53.736 107.404C49.7845 109.613 47.9045 126.243 49.3732 145.606C48.2239 147.757 47.0244 150.033 45.7979 152.388C19.6743 131.615 1.29266 102.715 15.4322 68.5094C17.4142 63.7097 20.0566 59.1008 23.8223 55.5299C24.0867 55.2771 24.3555 55.0331 24.6279 54.798C31.5479 48.7518 41.1043 46.6581 50.4641 46.6581C51.9736 46.6581 53.4787 46.7113 54.9661 46.8133C66.0395 47.563 76.9009 50.504 87.9951 50.8766C88.6295 50.8988 89.2638 50.9121 89.8982 50.9121C93.1098 50.9121 96.3303 50.5927 99.3245 49.4793C106.098 46.9641 110.809 40.7716 114.194 34.3883C117.574 28.005 120.058 21.0938 124.339 15.2738C132.368 4.36147 142.207 0.000915527 152.693 0.000915527C182.37 0.000915527 217.232 34.925 230.89 55.1218C277.538 124.092 244.002 169.232 191.21 184.269ZM117.45 107.404C108.959 106.933 99.4665 106.308 90.4083 105.864C90.4571 105.864 90.5059 105.864 90.5547 105.864C92.7238 105.864 95.8644 105.643 99.187 105.146L102.505 105.643C102.851 105.625 103.206 105.603 103.565 105.572C107.7 105.248 112.734 104.267 117.929 102.799C117.658 105.465 117.45 107.404 117.45 107.404Z" fill="url(#paint0_linear_30009_150618)"/>
<path d="M118.971 218.128C117.387 218.128 115.892 218.048 114.508 217.88C104.239 216.62 87.9682 213.644 75.4766 209.598C76.0932 208.334 76.6477 207.127 77.0691 206.103C90.6031 209.128 105.765 211.998 106.342 212.104C108.773 212.712 111.975 212.991 115.648 212.991C124.525 212.991 136.151 211.364 146.243 208.831C147.09 210.055 147.942 211.155 148.789 212.109C148.834 212.158 148.873 212.202 148.918 212.251C139.19 215.662 127.741 218.133 118.971 218.128ZM70.4219 207.819C65.4794 205.912 61.5398 203.814 59.4345 201.582C62.0597 202.465 65.9797 203.499 70.4547 204.572C70.476 204.736 70.4911 204.891 70.4995 205.038C70.5421 205.841 70.5066 206.79 70.4219 207.819Z" fill="#B0B0B0"/>
<path d="M186.792 66.8011C169.044 59.158 134.279 62.2189 132.363 70.4342C130.442 78.6451 122.143 130.958 107.304 134.227C92.4663 137.497 64.803 134.981 57.0073 146.045C49.2111 157.112 51.8297 196.987 56.3565 200.256C60.8829 203.525 106.36 212.109 106.36 212.109L163.006 182.197L186.792 66.8011Z" fill="#5745A0"/>
<path d="M183.004 66.8009C197.372 63.5848 197.336 94.8537 191.299 112.464C185.266 130.075 177.343 191.02 166.404 200.535C155.465 210.05 107.18 217.591 101.897 209.673C96.6184 201.751 90.7718 155.382 106.16 150.95C121.548 146.523 146.035 148.209 153.199 139.896C160.367 131.583 172.437 69.1653 183.004 66.8009Z" fill="#7363BA"/>
<path d="M33.8719 200.535C33.8719 200.535 23.6426 213.945 21.296 216.127C21.0166 216.389 20.7992 216.686 20.6262 217.01C19.3619 219.374 20.5597 223.052 17.0198 222.834C12.9964 222.581 -0.249277 225.097 0.00357106 223.42C0.256419 221.743 11.741 217.972 13.5819 216.38C13.959 216.052 14.2961 215.657 14.6288 215.165C15.9153 213.257 17.144 209.864 20.5419 203.134L33.8719 200.535Z" fill="#B1AADC"/>
<path d="M20.6262 217.005C19.3619 219.374 20.5597 223.052 17.0198 222.834C12.9964 222.581 -0.249277 225.097 0.00357106 223.42C0.256419 221.743 11.741 217.972 13.5819 216.38C13.959 216.052 14.2961 215.657 14.6288 215.165C16.8335 215.391 14.0654 218.913 16.0128 218.851C17.9646 218.789 20.6262 217.005 20.6262 217.005Z" fill="#F29892"/>
<path d="M77.9164 203.445C77.6636 206.337 69.6163 221.131 68.9869 220.253C68.3614 219.37 70.748 209.691 70.4996 205.038C70.4641 204.412 70.2999 203.578 70.0338 202.598C68.326 196.281 62.577 183.994 62.577 183.994L72.2562 177.375C72.2562 177.375 72.5534 193.806 73.3918 196.485C73.5248 196.911 73.7378 197.306 73.9951 197.678C75.3791 199.648 78.1293 201.014 77.9164 203.445Z" fill="#B1AADC"/>
<path d="M77.9163 203.445C77.6634 206.337 69.6166 221.131 68.9867 220.253C68.3613 219.37 70.7478 209.691 70.4994 205.038C70.4639 204.412 70.2998 203.578 70.0336 202.598C72.3048 200.451 72.9347 205.273 73.5646 204.39C74.1901 203.512 74.7224 200.779 73.9949 197.678C75.3789 199.648 78.1292 201.014 77.9163 203.445Z" fill="#F29892"/>
<path d="M131.108 127.941C131.108 127.941 100.553 131.986 75.6541 129.72C73.4183 155.603 74.2479 181.757 74.2479 181.757L70.7786 183.811L59.5601 190.452C46.2305 161.028 46.6963 111.342 53.7357 107.402C60.7804 103.459 93.2203 106.058 117.449 107.402L122.897 115.591L131.108 127.941Z" fill="#87B8C1"/>
<path d="M70.7785 183.812C70.2914 178.178 69.5324 169.612 68.6741 160.665C71.1937 156.557 73.2054 153.253 74.3986 151.279C74.168 158.199 74.097 164.511 74.097 169.572C74.097 177.016 74.2478 181.758 74.2478 181.758L70.7785 183.812ZM64.6964 126.357C64.361 124.494 64.0563 123.301 63.7968 122.995C63.0533 122.108 63.296 121.757 64.0807 121.757C65.596 121.757 69.1345 123.062 71.5104 124.335C71.592 124.379 71.671 124.419 71.7464 124.454C69.06 125.12 66.6584 125.754 64.6964 126.357ZM72.9658 124.157C72.3936 122.831 69.2086 119.544 63.3798 115.591C66.6588 117.601 75.8891 118.413 86.5176 118.413C89.8978 118.413 93.4199 118.333 96.9376 118.182C88.984 120.449 80.1032 122.414 72.9658 124.157Z" fill="#6F989F"/>
<path d="M140.068 141.519C123.903 149.903 75.6182 149.264 75.6182 149.264C75.6182 149.264 52.3828 187.835 39.3855 206.346L39.3678 206.377C37.1937 209.469 35.3133 212.002 33.8717 213.696L20.5413 203.134C20.5413 203.134 30.1499 183.128 39.9444 163.797C48.5013 146.913 57.1909 130.549 59.773 128.442C63.7876 125.155 90.9665 121.03 106.581 115.037L106.63 115.015C107.521 114.673 108.373 114.327 109.18 113.968C109.238 113.941 109.278 113.923 109.3 113.914C113.754 111.949 116.832 109.789 117.449 107.403L146.704 104.297C147.063 106.147 147.485 107.988 147.915 109.816C150.878 122.405 154.183 134.2 140.068 141.519Z" fill="#87B8C1"/>
<path d="M39.9535 163.788C48.5016 146.914 57.1911 130.549 59.7732 128.442C63.7878 125.155 90.9667 121.03 106.581 115.037C98.6941 118.257 76.0531 127.453 68.7427 130.705C59.9817 134.604 48.8382 151.443 39.9535 163.788Z" fill="#9BD3DD"/>
<path d="M39.3858 206.346C40.1133 205.068 63.3931 164.16 64.2182 154.175C64.6782 148.607 65.7952 147.179 67.389 147.179C68.698 147.179 70.3282 148.142 72.1807 148.559C72.6509 148.665 73.0324 148.718 73.3385 148.718C75.6806 148.718 73.1965 145.556 68.7428 139.168C72.0964 142.144 77.3485 143.422 83.5899 143.422C108.263 143.422 148.421 123.478 147.915 109.815C149.184 115.201 150.515 120.439 150.515 125.243C150.519 131.676 148.146 137.331 140.068 141.519C126.042 148.794 87.8351 149.273 77.9651 149.273C76.4614 149.273 75.6185 149.264 75.6185 149.264C75.6185 149.264 75.1838 149.983 74.3986 151.278C73.2054 153.252 71.1937 156.557 68.6741 160.664C65.1555 166.4 60.6424 173.693 55.9696 181.087C54.8774 182.813 53.7782 184.547 52.679 186.269C47.9303 193.699 43.2136 200.894 39.3858 206.346Z" fill="#6F989F"/>
<path d="M124.693 93.6824C120.785 97.484 115.4 99.7286 110.636 102.022C103.911 105.251 92.027 106.178 88.5848 105.775C87.946 105.704 87.6 105.584 87.6266 105.424C87.7996 104.4 90.1019 105.611 102.176 98.6329C107.775 95.3946 111.483 89.7566 113.954 84.256C115.143 85.1876 116.309 86.1547 117.463 87.1483C119.92 89.2554 122.311 91.4689 124.693 93.6824Z" fill="#B1AADC"/>
<path d="M130.345 80.1481C130.234 81.2305 130.096 82.335 129.932 83.4529C129.271 87.8844 127.315 91.1315 124.693 93.6821C122.311 91.4686 119.92 89.2551 117.463 87.148C116.309 86.1544 115.143 85.1873 113.954 84.2558C116.819 77.8858 118.035 71.7021 118.62 69.6261C119.712 65.7624 124.467 63.6332 130.318 62.6218C130.318 62.6218 131.329 70.5354 130.345 80.1481Z" fill="white"/>
<path d="M90.5543 105.863C90.5055 105.863 90.4567 105.863 90.4079 105.863C89.676 105.859 89.0638 105.828 88.6025 105.775C88.598 105.775 88.5891 105.775 88.5847 105.775C103.556 102.674 113.178 101.481 117.365 90.7192C117.702 89.8453 117.778 88.6565 117.72 87.3701C118.195 87.7782 118.665 88.1863 119.131 88.6032C119.1 90.0538 118.878 92.8351 118.607 95.825C109.372 101.374 98.5124 105.043 98.5124 105.043L99.1866 105.145C95.8641 105.642 92.7234 105.863 90.5543 105.863Z" fill="#9388CD"/>
<path d="M146.704 104.297C135.22 113.187 117.449 107.403 117.449 107.403C117.449 107.403 117.751 104.617 118.097 101.13C118.611 95.9889 119.224 89.3616 119.126 87.8667C118.975 85.662 115.599 82.3528 115.52 79.536C115.502 79.1456 115.555 78.7642 115.688 78.396C116.775 75.3795 123.597 64.4317 129.936 62.7194C148.55 57.689 144.105 91.2203 146.704 104.297Z" fill="white"/>
<path d="M134.696 64.1438C132.642 67.3332 125.35 67.2046 125.975 66.0734C126.623 64.9112 127.066 63.6115 127.372 62.3872C128.016 59.8277 128.051 57.5875 128.051 57.5875L131.09 56.2745L131.697 56.0128L131.87 56.4874L134.696 64.1438Z" fill="#B1AADC"/>
<path d="M123.367 101.091C129.724 98.9082 135.934 96.0736 140.658 92.8886C142.823 91.4292 144.358 89.7525 145.422 88.0624C142.694 96.4419 127.426 100.776 123.367 101.091Z" fill="#CCCCCC"/>
<path d="M147.418 82.921C146.886 85.9995 145.09 89.8987 140.658 92.8885C139.31 90.8834 137.797 88.9849 136.049 87.3657C134.576 85.9906 132.935 84.8151 131.076 83.9279C136.435 73.8805 136.728 62.5512 136.728 62.5512C139.345 63.2033 141.457 64.2457 143.107 65.6208C147.591 69.3337 148.7 75.4775 147.418 82.921Z" fill="white"/>
<path d="M140.658 92.8885C139.309 90.8834 137.797 88.9849 136.049 87.3657C143.435 79.248 145.985 70.6734 143.102 65.6208C147.467 69.2317 148.638 75.1404 147.516 82.3133C147.485 82.5129 147.454 82.7169 147.418 82.921C146.886 85.9995 145.089 89.8987 140.658 92.8885Z" fill="#F7F7F7"/>
<path d="M94.1377 90.3863L101.333 107.274L94.6972 106.3L87.693 89.9743L94.1377 90.3863Z" fill="#D2412B"/>
<path d="M126.352 59.8493C125.997 59.7783 125.624 59.3879 125.296 58.7669C124.471 57.201 123.934 54.1402 124.657 50.9019C124.657 50.9019 127.745 50.9906 130.007 52.0109C131.196 52.5477 132.159 53.3373 132.327 54.504C132.828 57.9019 127.612 60.1021 126.352 59.8493Z" fill="#B1AADC"/>
<path d="M123.021 49.9749C124.609 52.53 128.872 53.2087 130.819 52.9159C132.767 52.6187 131.959 49.5978 128.845 48.6574C125.727 47.7125 122.182 48.622 123.021 49.9749Z" fill="#352965"/>
<path d="M140.658 92.8878C130.704 99.5993 114.166 104.741 103.565 105.57C103.205 105.601 102.85 105.623 102.504 105.641L98.5121 105.042C98.5121 105.042 123.136 96.7205 129.763 86.1984C130.233 85.4532 130.668 84.6946 131.076 83.9272C132.935 84.8144 134.576 85.9899 136.049 87.365C137.797 88.9841 139.309 90.8827 140.658 92.8878Z" fill="#B1AADC"/>
<path d="M103.565 105.571C118.225 102.008 129.213 94.8844 136.049 87.3655C137.797 88.9846 139.309 90.8832 140.658 92.8882C135.934 96.0732 129.723 98.9078 123.367 101.09C121.557 101.716 119.734 102.284 117.928 102.798C112.734 104.266 107.699 105.247 103.565 105.571Z" fill="#CDC8E8"/>
<path d="M119.25 88.5919C118.785 88.1749 118.314 87.7668 117.84 87.3587C117.791 86.2852 117.653 85.1452 117.498 84.054C118.341 85.4557 119.175 86.7865 119.246 87.8555C119.25 87.8999 119.25 87.9531 119.255 88.0108C119.255 88.0818 119.255 88.166 119.255 88.2548C119.255 88.2681 119.255 88.2814 119.255 88.2947C119.255 88.3879 119.255 88.4854 119.25 88.5919Z" fill="#CCCCCC"/>
<path d="M118.727 95.8134C119.019 92.6062 119.25 89.6386 119.254 88.2945C119.254 88.2812 119.254 88.2679 119.254 88.2546C119.254 88.1658 119.254 88.0816 119.254 88.0106C119.25 87.9529 119.25 87.8997 119.246 87.8553C119.095 85.6507 115.719 82.3414 115.639 79.5246C116.185 82.6697 120.049 85.8991 125.868 85.8991C127.284 85.8991 128.809 85.7083 130.433 85.2825C130.256 85.5841 130.074 85.8858 129.883 86.1874C129.865 86.2185 129.847 86.2451 129.825 86.2762C127.208 87.4384 124.329 88.7558 123.686 89.368C123.052 89.9668 124.187 90.2729 125.984 90.6189C123.894 92.4776 121.375 94.2209 118.727 95.8134Z" fill="#F7F7F7"/>
<path d="M127.954 62.6899C127.763 62.6899 127.612 62.6012 127.506 62.4015L127.492 62.3749C127.75 61.3547 127.909 60.3832 128.007 59.5847C129.356 59.1278 131.103 58.112 131.959 56.7014C131.516 59.3363 129.098 62.6899 127.954 62.6899Z" fill="#9388CD"/>
<path d="M126.703 59.8561C126.614 59.8561 126.538 59.8516 126.472 59.8383C126.117 59.7673 125.744 59.377 125.416 58.7559C125.638 58.9822 125.979 59.1196 126.383 59.1196C127.789 59.1196 129.923 57.4384 130.127 52C131.316 52.5367 132.278 53.3264 132.447 54.493C132.469 54.6483 132.483 54.8036 132.483 54.9544C132.478 55.5887 132.283 56.1742 131.959 56.7021C131.103 58.1127 129.355 59.1285 128.007 59.5854C127.488 59.7629 127.026 59.8561 126.703 59.8561Z" fill="#9388CD"/>
<path d="M130.123 49.2255C133.29 50.8978 133.223 53.4263 135.805 56.0124C138.48 58.6873 141.643 59.9382 139.181 62.0497C134.337 66.1973 129.369 62.7195 129.936 57.8356C130.504 52.9516 127.386 51.2216 127.386 51.2216L130.123 49.2255Z" fill="#352965"/>
<path d="M192.559 174.935V174.966C191.636 191.57 181.491 210.675 177.973 213.696C174.451 216.713 159.36 219.481 152.32 215.204C151.185 214.512 149.991 213.461 148.789 212.108C142.53 205.086 135.969 189.946 135.473 174.966C135.335 170.889 159.493 170.197 176.421 171.448C185.536 172.123 192.559 173.36 192.559 174.935Z" fill="#F29892"/>
<path d="M162.425 217.4C158.619 217.4 154.92 216.784 152.32 215.205C151.224 214.535 150.075 213.537 148.918 212.25C148.873 212.201 148.833 212.157 148.789 212.108C150.333 212.765 152.018 213.089 153.784 213.089C166.085 213.089 181.979 197.501 176.713 172.957C176.602 172.438 176.505 171.937 176.42 171.449C185.536 172.123 192.558 173.36 192.558 174.935V174.966C191.636 191.57 181.491 210.675 177.973 213.696C175.751 215.599 168.928 217.4 162.425 217.4Z" fill="#EF5E4E"/>
<path d="M192.559 174.935V174.966C192.505 175.64 191.605 176.221 190.057 176.714C180.484 179.77 146.287 179.446 137.526 176.443C136.249 176.008 135.512 175.516 135.473 174.966C135.26 168.693 192.559 170.432 192.559 174.935Z" fill="#EF5E4E"/>
<path d="M190.056 176.714C180.484 179.77 146.287 179.446 137.526 176.443C146.283 173.041 180.484 173.892 190.056 176.714Z" fill="#352965"/>
<path d="M187.905 148.683C189.529 157.089 205.512 157.989 213.181 151.074C220.851 144.158 226.006 134.852 223.238 130.957C220.474 127.058 185.137 134.35 187.905 148.683Z" fill="#CDC8E8"/>
<path d="M164.013 156.734C172.246 159.791 187.129 127.244 165.397 116.749C143.666 106.249 159.613 155.097 164.013 156.734Z" fill="#E3E1F2"/>
<path d="M145.697 156.935C150.683 151.452 132.332 131.002 113.954 141.897C88.5846 156.935 136.852 161.286 145.152 156.935H145.697Z" fill="#CDC8E8"/>
<path d="M129.058 147.88C145.657 149.441 152.95 166.83 156.468 177.375H158.357C158.357 177.375 148.865 154.596 140.658 150.444C132.452 146.296 129.058 147.88 129.058 147.88Z" fill="#B1AADC"/>
<path d="M163.792 177.375C163.792 177.375 165.53 137.788 165.464 127.266C166.653 136.821 165.952 152.751 165.464 158.997C164.98 165.242 164.954 177.814 164.954 177.814L163.792 177.375Z" fill="#B1AADC"/>
<path d="M169.842 176.541C173.444 164.652 191.574 142.002 207.729 137.26C192.505 146.079 188.952 150.985 186.792 152.919C184.636 154.844 173.688 166.285 170.671 177.375L169.842 176.541Z" fill="#B1AADC"/>
<defs>
<linearGradient id="paint0_linear_30009_150618" x1="33.6306" y1="150.478" x2="218.443" y2="32.7045" gradientUnits="userSpaceOnUse">
<stop stop-color="#E3E1F2"/>
<stop offset="1" stop-color="#E3E1F2" stop-opacity="0.2"/>
</linearGradient>
</defs>
</svg>
